<?xml version="1.0" standalone="no"?>
<!DOCTYPE svg PUBLIC "-//W3C//DTD SVG 20010904//EN"
 "http://www.w3.org/TR/2001/REC-SVG-20010904/DTD/svg10.dtd">
<svg version="1.0" xmlns="http://www.w3.org/2000/svg"
 width="1600.000000pt" height="557.000000pt" viewBox="0 0 1600.000000 557.000000"
 preserveAspectRatio="xMidYMid meet">

<g transform="translate(0.000000,557.000000) scale(0.100000,-0.100000)"
fill="#000000" stroke="none">
<path d="M587 4298 c5 -634 26 -898 87 -1142 95 -374 283 -684 607 -1003 137
-133 210 -196 392 -337 l139 -106 56 40 c248 173 595 499 734 686 142 192 266
425 319 599 89 288 108 472 116 1103 l6 472 -1229 0 -1229 0 2 -312z m2290
-270 c-5 -468 -17 -616 -63 -803 -91 -369 -266 -662 -577 -969 -113 -111 -347
-307 -402 -336 -22 -12 -29 -10 -66 16 -64 44 -275 224 -365 311 -388 376
-574 737 -635 1235 -10 84 -30 957 -22 971 2 4 484 7 1070 7 l1065 0 -5 -432z"/>
<path d="M1396 4102 c-6 -11 -4 -189 3 -201 4 -6 121 -11 296 -13 l290 -3 55
-30 c130 -71 162 -256 64 -365 -58 -64 -121 -83 -301 -88 l-153 -4 0 181 0
181 -125 0 -125 0 0 -142 c0 -79 -3 -160 -6 -180 l-7 -38 -198 0 -199 0 0
-110 0 -110 199 0 c177 0 200 -2 205 -17 4 -9 6 -105 6 -212 l-2 -196 116 -3
116 -3 2 213 3 213 106 3 106 3 63 -98 c34 -54 97 -151 138 -215 l76 -118 138
0 c76 0 138 4 138 8 0 5 -13 28 -29 53 -142 215 -261 403 -261 411 0 4 12 13
26 18 41 16 116 70 152 109 120 133 146 355 61 523 -33 65 -107 137 -179 173
-110 55 -186 65 -495 65 -151 0 -276 -3 -279 -8z"/>
<path d="M5010 4109 c-154 -26 -285 -160 -321 -330 -18 -84 -7 -282 20 -351
46 -118 143 -214 250 -245 78 -22 211 -14 271 17 102 52 162 121 207 236 24
62 27 83 27 199 1 153 -15 214 -79 309 -85 128 -226 190 -375 165z m153 -124
c106 -44 171 -155 183 -315 13 -168 -53 -311 -171 -366 -118 -56 -250 -10
-321 112 -70 119 -73 311 -6 439 26 50 86 109 132 129 45 20 138 20 183 1z"/>
<path d="M9399 4110 c-72 -12 -133 -44 -190 -96 -90 -86 -136 -192 -145 -339
-14 -215 78 -400 233 -473 52 -24 69 -27 163 -27 125 1 172 18 251 92 58 54
89 104 121 189 17 47 21 82 22 179 1 140 -13 196 -72 295 -80 133 -235 206
-383 180z m169 -136 c122 -60 182 -215 160 -407 -21 -172 -128 -287 -268 -287
-119 0 -216 85 -255 224 -24 81 -17 251 13 316 71 160 213 222 350 154z"/>
<path d="M6579 4083 c-60 -156 -255 -670 -284 -748 -12 -33 -30 -77 -39 -99
-9 -21 -16 -43 -16 -48 0 -5 28 -8 61 -6 l62 3 41 112 41 113 196 0 197 0 42
-115 43 -115 64 0 c34 0 63 2 63 5 0 2 -14 39 -31 82 -17 43 -93 242 -169 443
-76 201 -141 373 -145 383 -6 13 -19 17 -61 17 -50 0 -55 -2 -65 -27z m76
-180 c4 -10 18 -47 30 -83 13 -36 42 -112 64 -170 22 -58 41 -108 41 -112 0
-5 -67 -8 -150 -8 l-150 0 26 68 c13 37 46 124 71 195 26 70 50 127 54 127 4
0 10 -8 14 -17z"/>
<path d="M8550 4092 c-137 -50 -231 -167 -265 -327 -50 -237 44 -474 223 -562
52 -25 67 -28 167 -28 105 0 113 1 170 33 33 17 75 45 94 61 l34 29 -32 41
c-18 23 -35 41 -38 41 -3 0 -22 -13 -42 -29 -69 -54 -101 -66 -181 -66 -64 0
-82 4 -121 27 -58 34 -94 76 -128 148 -24 50 -26 66 -26 180 0 117 2 129 29
187 84 182 281 227 433 99 l29 -25 28 36 c16 19 29 42 30 51 2 23 -91 90 -148
107 -66 20 -198 18 -256 -3z"/>
<path d="M14140 4053 c-13 -32 -35 -92 -51 -133 -15 -41 -41 -109 -57 -150
-16 -41 -70 -183 -120 -315 -50 -132 -94 -248 -97 -258 -7 -16 -2 -18 56 -15
l63 3 41 110 42 110 197 0 198 0 25 -65 c14 -36 31 -86 39 -112 l15 -48 65 0
c63 0 65 1 58 23 -4 12 -76 204 -161 427 -85 223 -160 421 -166 440 -12 34
-14 35 -69 38 l-56 3 -22 -58z m150 -321 c40 -106 70 -195 68 -198 -3 -2 -70
-3 -150 -2 l-145 3 59 155 c32 85 65 174 74 198 9 24 18 42 19 40 2 -2 36 -90
75 -196z"/>
<path d="M3880 3641 l0 -461 60 0 60 0 0 175 0 175 93 0 92 0 59 -93 c33 -50
84 -129 114 -174 l54 -83 69 0 c38 0 69 2 69 5 0 3 -52 83 -115 179 -63 96
-115 179 -115 184 0 6 15 15 34 22 49 16 111 73 136 126 29 59 32 179 6 239
-23 55 -79 109 -140 137 -47 21 -68 23 -263 26 l-213 4 0 -461z m430 323 c68
-40 103 -122 81 -195 -29 -98 -96 -129 -278 -129 l-113 0 0 176 0 176 138 -4
c116 -2 142 -6 172 -24z"/>
<path d="M5512 4078 c8 -13 64 -106 123 -208 60 -102 126 -213 146 -247 l39
-63 2 -187 3 -188 60 0 60 0 5 195 5 195 34 55 c67 107 78 126 136 225 33 55
78 133 102 173 l43 72 -69 0 -69 0 -112 -195 c-62 -107 -118 -202 -124 -211
-10 -13 -31 17 -133 193 l-120 208 -73 3 -73 3 15 -23z"/>
<path d="M7220 3640 l0 -460 265 0 265 0 0 55 0 55 -205 0 -205 0 0 405 0 405
-60 0 -60 0 0 -460z"/>
<path d="M10030 3640 l0 -460 268 2 267 3 3 53 3 52 -210 0 -211 0 0 405 0
405 -60 0 -60 0 0 -460z"/>
<path d="M10680 3778 c0 -403 7 -436 108 -530 34 -32 67 -52 103 -62 60 -18
176 -21 231 -6 57 16 130 70 165 122 55 83 63 148 63 492 l0 306 -59 0 -59 0
-4 -327 -3 -328 -27 -55 c-36 -71 -81 -102 -157 -108 -77 -6 -132 11 -175 54
-61 61 -66 95 -66 451 l0 313 -60 0 -60 0 0 -322z"/>
<path d="M11590 3640 l0 -460 55 0 55 0 0 335 c0 184 4 335 8 335 5 0 64 -97
132 -215 69 -118 129 -214 134 -212 5 2 64 98 130 215 67 116 124 211 129 212
4 0 7 -151 7 -335 l0 -335 60 0 60 0 0 460 0 461 -62 -3 -62 -3 -127 -223
c-70 -123 -131 -224 -135 -224 -8 -1 -66 97 -178 297 -13 22 -38 66 -55 98
l-33 57 -59 0 -59 0 0 -460z"/>
<path d="M12630 3641 l0 -461 193 0 c217 0 281 11 352 60 142 98 132 314 -19
395 l-35 19 44 40 c83 79 96 219 27 306 -15 19 -55 49 -87 65 l-60 30 -207 3
-208 4 0 -461z m397 334 c52 -22 71 -42 83 -87 22 -78 -24 -155 -105 -177 -22
-6 -88 -11 -147 -11 l-108 0 0 145 0 145 120 0 c86 0 131 -4 157 -15z m45
-408 c48 -20 78 -69 78 -125 0 -64 -23 -100 -83 -128 -47 -21 -66 -24 -184
-24 l-133 0 0 151 0 151 143 -4 c101 -3 153 -9 179 -21z"/>
<path d="M13500 3640 l0 -460 60 0 60 0 0 460 0 460 -60 0 -60 0 0 -460z"/>
<path d="M14780 3640 l0 -460 55 0 55 0 0 341 c0 287 2 340 14 330 7 -6 112
-159 232 -341 l219 -329 53 -1 52 0 0 460 0 460 -60 0 -60 0 0 -330 c0 -181
-3 -330 -7 -330 -5 0 -107 149 -227 330 l-219 330 -53 0 -54 0 0 -460z"/>
<path d="M7260 2560 l0 -370 50 0 50 0 0 370 0 370 -50 0 -50 0 0 -370z"/>
<path d="M10360 2805 c0 -69 -3 -125 -6 -125 -3 0 -21 12 -41 27 -69 53 -187
40 -250 -29 -53 -57 -68 -106 -68 -218 0 -94 3 -110 26 -155 32 -60 50 -78
109 -104 74 -34 133 -26 194 26 l31 26 3 -31 c3 -31 5 -32 53 -32 l49 0 0 370
0 370 -50 0 -50 0 0 -125z m-70 -177 c51 -35 70 -81 70 -166 0 -119 -51 -187
-141 -187 -33 0 -54 6 -69 20 -84 75 -79 293 8 340 40 21 94 18 132 -7z"/>
<path d="M6100 2865 l0 -56 53 3 52 3 0 50 0 50 -52 3 -53 3 0 -56z"/>
<path d="M11540 2865 l0 -55 50 0 50 0 0 55 0 55 -50 0 -50 0 0 -55z"/>
<path d="M3855 2897 c-3 -6 -4 -167 -3 -357 l3 -345 47 -3 47 -3 3 158 3 158
25 -1 c14 -1 82 -2 153 -3 l127 -1 0 -155 0 -155 50 0 50 0 0 360 0 360 -50 0
-50 0 0 -155 0 -156 -152 3 -153 3 -3 153 -3 152 -45 0 c-27 0 -47 -5 -49 -13z"/>
<path d="M7810 2550 l0 -360 50 0 49 0 3 153 3 152 153 3 153 3 -3 42 -3 42
-153 3 -153 3 3 112 3 112 168 3 167 2 0 45 0 45 -220 0 -220 0 0 -360z"/>
<path d="M6380 2805 l0 -75 -30 0 c-29 0 -30 -2 -30 -45 0 -43 1 -45 30 -45
l30 0 0 -172 c0 -208 11 -244 79 -271 48 -20 63 -21 114 -6 36 10 37 11 37 55
0 42 -2 45 -22 39 -13 -4 -31 -9 -41 -12 -10 -2 -29 3 -42 11 -25 16 -25 17
-25 186 l0 169 63 3 62 3 3 43 3 42 -65 0 -66 0 0 75 0 75 -50 0 -50 0 0 -75z"/>
<path d="M11170 2805 l0 -75 -31 0 c-29 0 -30 -1 -27 -42 3 -39 6 -43 31 -46
l27 -3 0 -175 c0 -189 5 -213 55 -252 37 -29 80 -36 131 -22 44 12 44 13 44
57 0 41 -2 44 -22 38 -13 -4 -31 -9 -41 -12 -10 -2 -29 3 -42 11 -25 16 -25
17 -25 186 l0 170 65 0 65 0 0 45 0 45 -65 0 -65 0 0 75 0 75 -50 0 -50 0 0
-75z"/>
<path d="M4610 2714 c-62 -35 -78 -51 -108 -109 -23 -43 -27 -62 -27 -140 0
-78 4 -97 28 -147 42 -85 123 -138 211 -138 94 0 197 85 226 188 14 53 12 140
-5 198 -42 144 -204 217 -325 148z m170 -86 c101 -69 99 -275 -3 -339 -42 -26
-108 -21 -144 12 -64 60 -83 178 -43 266 35 78 123 106 190 61z"/>
<path d="M5118 2720 c-87 -46 -112 -166 -47 -226 11 -11 64 -41 117 -69 87
-45 97 -53 100 -80 4 -44 -17 -66 -69 -72 -36 -4 -55 1 -103 26 -32 17 -60 31
-61 31 -2 0 -13 -14 -25 -31 -21 -28 -21 -31 -5 -49 22 -25 104 -59 160 -67
119 -16 225 91 195 197 -14 49 -45 77 -135 122 -95 48 -115 64 -115 93 0 58
87 75 164 32 l45 -25 22 34 c26 43 18 55 -57 84 -68 25 -138 25 -186 0z"/>
<path d="M5653 2706 l-53 -36 0 30 c0 29 -2 30 -45 30 l-45 0 0 -345 0 -345
45 0 44 0 3 105 3 104 44 -29 c110 -74 229 -37 295 93 25 49 29 68 29 139 1
174 -74 278 -208 286 -56 4 -64 1 -112 -32z m161 -77 c45 -35 60 -76 61 -164
0 -95 -21 -146 -76 -178 -93 -54 -199 38 -199 173 0 107 64 190 144 190 29 0
52 -7 70 -21z"/>
<path d="M6801 2720 c-30 -11 -58 -23 -62 -27 -4 -5 -1 -24 7 -44 l15 -36 57
20 c103 35 184 6 198 -70 4 -19 5 -36 3 -37 -2 -2 -29 0 -59 5 -107 17 -209
-20 -245 -91 -8 -16 -15 -55 -15 -87 0 -73 30 -121 93 -152 58 -28 112 -27
173 4 27 14 50 25 52 25 1 0 2 -9 2 -20 0 -17 7 -20 45 -20 l45 0 0 203 c0
175 -3 207 -19 243 -42 93 -165 129 -290 84z m202 -276 c24 -7 23 -79 -3 -122
-23 -38 -54 -52 -115 -52 -36 0 -48 5 -69 31 -66 77 3 166 119 153 28 -3 58
-8 68 -10z"/>
<path d="M8450 2721 c-93 -49 -144 -143 -143 -262 2 -163 104 -280 244 -279
43 0 115 33 152 68 130 123 101 382 -52 466 -60 32 -147 35 -201 7z m171 -98
c115 -97 77 -332 -57 -350 -149 -20 -223 220 -104 339 32 33 44 38 83 38 35 0
53 -6 78 -27z"/>
<path d="M9605 2715 c-49 -30 -55 -30 -55 -5 0 17 -7 20 -45 20 l-45 0 0 -270
0 -270 45 0 45 0 0 161 c0 88 5 180 11 205 15 59 56 94 110 94 97 0 109 -32
109 -275 l0 -185 51 0 51 0 -4 208 c-4 236 -11 263 -81 313 -54 39 -133 41
-192 4z"/>
<path d="M10692 2721 c-71 -24 -75 -30 -57 -73 l15 -36 50 19 c100 38 187 11
201 -61 4 -19 6 -37 4 -41 -3 -3 -28 -2 -57 2 -136 22 -240 -33 -259 -137 -29
-156 123 -265 265 -189 57 30 56 30 56 5 0 -17 7 -20 46 -20 l45 0 -3 213 c-3
201 -4 214 -26 249 -49 78 -168 108 -280 69z m201 -283 c38 -20 8 -127 -44
-153 -42 -22 -115 -19 -139 5 -53 53 -31 143 40 160 38 9 115 3 143 -12z"/>
<path d="M11882 2709 c-142 -81 -175 -302 -67 -444 35 -46 116 -85 175 -85
102 0 205 86 231 194 16 67 7 181 -19 232 -63 124 -205 169 -320 103z m179
-80 c39 -27 69 -89 76 -154 5 -43 1 -63 -20 -108 -31 -68 -65 -92 -128 -92
-37 0 -54 6 -75 25 -89 82 -84 273 8 330 43 26 102 26 139 -1z"/>
<path d="M12510 2733 c-8 -3 -27 -14 -42 -24 -33 -24 -38 -24 -38 1 0 17 -7
20 -45 20 l-45 0 0 -270 0 -270 45 0 45 0 0 168 c0 92 5 184 10 204 23 80 128
118 178 65 35 -37 42 -80 42 -264 l0 -173 46 0 45 0 -3 213 c-4 248 -11 275
-88 315 -42 21 -114 28 -150 15z"/>
<path d="M6110 2460 l0 -270 45 0 45 0 0 270 0 270 -45 0 -45 0 0 -270z"/>
<path d="M8882 2512 l3 -219 28 -37 c44 -56 72 -71 143 -71 51 0 68 5 100 28
l39 27 3 -25 c3 -22 8 -25 48 -25 l44 0 0 270 0 270 -45 0 -45 0 0 -175 c0
-187 -7 -222 -50 -260 -15 -14 -36 -20 -70 -20 -94 0 -110 42 -110 284 l0 171
-46 0 -45 0 3 -218z"/>
<path d="M11540 2460 l0 -270 50 0 50 0 0 270 0 270 -50 0 -50 0 0 -270z"/>
</g>
</svg>
